<svg xmlns="http://www.w3.org/2000/svg" xmlns:xlink="http://www.w3.org/1999/xlink" width="60" height="60" viewBox="0 0 60 60">
  <defs>
    <linearGradient id="linear-gradient" x1="0.083" y1="0.111" x2="0.894" y2="0.933" gradientUnits="objectBoundingBox">
      <stop offset="0" stop-color="#1c1e2c"/>
      <stop offset="1" stop-color="#1a1c29"/>
    </linearGradient>
  </defs>
  <g id="Group_3565" data-name="Group 3565" transform="translate(-190 -2258)">
    <rect id="Rectangle_842" data-name="Rectangle 842" width="60" height="60" rx="20" transform="translate(190 2258)" opacity="0.95" fill="url(#linear-gradient)"/>
    <g id="_002-shopping-cart" data-name="002-shopping-cart" transform="translate(208 2237.717)">
      <path id="Path_16935" data-name="Path 16935" d="M509.867,89.6c-2.133-2.133-4.267-4.267-8.533-4.267H96L85.333,29.867c0-4.267-6.4-8.533-10.667-8.533h-64
			C4.267,21.333,0,25.6,0,32c0,6.4,4.267,10.667,10.667,10.667h55.467l51.2,260.267c6.4,34.133,38.4,59.733,72.533,59.733H435.2
			c6.4,0,10.667-4.267,10.667-10.667c0-6.4-4.267-10.667-10.667-10.667H192c-17.067,0-34.133-8.533-42.667-23.467L460.8,275.2
			c4.267,0,8.533-4.267,8.533-8.533L512,96C512,96,512,91.733,509.867,89.6z M450.133,256l-311.467,40.533l-38.4-192H486.4
			L450.133,256z" transform="translate(0)" fill="#fff"/>
      <path id="Path_16936" data-name="Path 16936" d="M181.333,384C151.467,384,128,407.467,128,437.333c0,29.867,23.467,53.333,53.333,53.333
			c29.867,0,53.333-23.467,53.333-53.333C234.667,407.467,211.2,384,181.333,384z M181.333,469.333c-17.067,0-32-14.934-32-32
			s14.933-32,32-32c17.067,0,32,14.934,32,32S198.4,469.333,181.333,469.333z" transform="translate(-143.922 -215.938)" fill="#fff"/>
      <path id="Path_16937" data-name="Path 16937" d="M394.667,384c-29.867,0-53.333,23.467-53.333,53.333c0,29.867,23.467,53.333,53.333,53.333
			c29.867,0,53.333-23.467,53.333-53.333C448,407.467,424.533,384,394.667,384z M394.667,469.333c-17.067,0-32-14.934-32-32
			s14.933-32,32-32c17.067,0,32,14.934,32,32S411.733,469.333,394.667,469.333z" transform="translate(-229.703 -215.938)" fill="#fff"/>
      <path id="Path_16938" data-name="Path 16938" d="M331.7,266.717a.7.7,0,0,0-.7.7v5.1a.7.7,0,0,0,1.406,0v-5.1A.7.7,0,0,0,331.7,266.717Z" transform="translate(-315.484 -215.938)" fill="#fff"/>
    </g>
  </g>
</svg>
